# Alias OBJ Model File
# Exported from SketchUp, (c) 2000-2012 Trimble Navigation Limited
# File units = meters

mtllib board10m.mtl

g Mesh1 Group1 Model

usemtl Color_M01
v 1 0 1
vt 236.22 157.48
vn 0 1 -0
v 2 0 -0
vt 275.591 196.85
v 1 0 -0
vt 236.22 196.85
f 1/1/1 2/2/1 3/3/1

v 2 0 1
vt 275.591 157.48
f 2/2/1 1/1/1 4/4/1

usemtl Color_M06
v 2 0 2
vt 275.591 118.11
f 1/1/1 5/5/1 4/4/1

v 1 0 2
vt 236.22 118.11
f 5/5/1 1/1/1 6/6/1

usemtl Color_M01
v 7.21911e-016 0 1
vt 196.85 157.48
f 7/7/1 6/6/1 1/1/1

v 7.21911e-016 0 2
vt 196.85 118.11
f 6/6/1 7/7/1 8/8/1

usemtl Color_M06
v -1 0 1
vt 157.48 157.48
f 9/9/1 8/8/1 7/7/1

v -1 0 2
vt 157.48 118.11
f 8/8/1 9/9/1 10/10/1

usemtl Color_M01
v -2 0 1
vt 118.11 157.48
f 11/11/1 10/10/1 9/9/1

v -2 0 2
vt 118.11 118.11
f 10/10/1 11/11/1 12/12/1

usemtl Color_M06
v -3 0 1
vt 78.7402 157.48
f 13/13/1 12/12/1 11/11/1

v -3 0 2
vt 78.7402 118.11
f 12/12/1 13/13/1 14/14/1

usemtl Color_M01
v -4 0 1
vt 39.3701 157.48
f 15/15/1 14/14/1 13/13/1

v -4 0 2
vt 39.3701 118.11
f 14/14/1 15/15/1 16/16/1

usemtl Color_M06
v -5 0 1
vt 2.84217e-014 157.48
f 17/17/1 16/16/1 15/15/1

v -5 0 2
vt 2.84217e-014 118.11
f 16/16/1 17/17/1 18/18/1

usemtl Color_M01
v -4 0 3
vt 39.3701 78.7402
f 18/18/1 19/19/1 16/16/1

v -5 0 3
vt 2.84217e-014 78.7402
f 19/19/1 18/18/1 20/20/1

usemtl Color_M06
v -4 0 4
vt 39.3701 39.3701
f 20/20/1 21/21/1 19/19/1

v -5 0 4
vt 2.84217e-014 39.3701
f 21/21/1 20/20/1 22/22/1

usemtl Color_M01
v -4 0 5
vt 39.3701 0
f 22/22/1 23/23/1 21/21/1

v -5 0 5
vt 2.84217e-014 0
f 23/23/1 22/22/1 24/24/1

usemtl Color_M06
v -3 0 5
vt 78.7402 0
f 25/25/1 21/21/1 23/23/1

v -3 0 4
vt 78.7402 39.3701
f 21/21/1 25/25/1 26/26/1

usemtl Color_M01
v -2 0 5
vt 118.11 0
f 27/27/1 26/26/1 25/25/1

v -2 0 4
vt 118.11 39.3701
f 26/26/1 27/27/1 28/28/1

usemtl Color_M06
v -1 0 5
vt 157.48 0
f 29/29/1 28/28/1 27/27/1

v -1 0 4
vt 157.48 39.3701
f 28/28/1 29/29/1 30/30/1

usemtl Color_M01
v 7.21911e-016 0 5
vt 196.85 0
f 31/31/1 30/30/1 29/29/1

v 7.21911e-016 0 4
vt 196.85 39.3701
f 30/30/1 31/31/1 32/32/1

usemtl Color_M06
v 1 0 5
vt 236.22 0
f 33/33/1 32/32/1 31/31/1

v 1 0 4
vt 236.22 39.3701
f 32/32/1 33/33/1 34/34/1

usemtl Color_M01
v 2 0 5
vt 275.591 0
f 35/35/1 34/34/1 33/33/1

v 2 0 4
vt 275.591 39.3701
f 34/34/1 35/35/1 36/36/1

usemtl Color_M06
v 3 0 5
vt 314.961 0
f 37/37/1 36/36/1 35/35/1

v 3 0 4
vt 314.961 39.3701
f 36/36/1 37/37/1 38/38/1

usemtl Color_M01
v 4 0 5
vt 354.331 0
f 39/39/1 38/38/1 37/37/1

v 4 0 4
vt 354.331 39.3701
f 38/38/1 39/39/1 40/40/1

usemtl Color_M06
v 5 0 5
vt 393.701 0
f 41/41/1 40/40/1 39/39/1

v 5 0 4
vt 393.701 39.3701
f 40/40/1 41/41/1 42/42/1

usemtl Color_M01
v 4 0 3
vt 354.331 78.7402
f 42/42/1 43/43/1 40/40/1

v 5 0 3
vt 393.701 78.7402
f 43/43/1 42/42/1 44/44/1

usemtl Color_M06
v 4 0 2
vt 354.331 118.11
f 44/44/1 45/45/1 43/43/1

v 5 0 2
vt 393.701 118.11
f 45/45/1 44/44/1 46/46/1

usemtl Color_M01
v 4 0 1
vt 354.331 157.48
f 46/46/1 47/47/1 45/45/1

v 5 0 1
vt 393.701 157.48
f 47/47/1 46/46/1 48/48/1

usemtl Color_M06
v 4 0 -0
vt 354.331 196.85
f 48/48/1 49/49/1 47/47/1

v 5 0 -0
vt 393.701 196.85
f 49/49/1 48/48/1 50/50/1

usemtl Color_M01
v 4 0 -1
vt 354.331 236.22
f 50/50/1 51/51/1 49/49/1

v 5 0 -1
vt 393.701 236.22
f 51/51/1 50/50/1 52/52/1

usemtl Color_M06
v 4 0 -2
vt 354.331 275.591
f 52/52/1 53/53/1 51/51/1

v 5 0 -2
vt 393.701 275.591
f 53/53/1 52/52/1 54/54/1

usemtl Color_M01
v 4 0 -3
vt 354.331 314.961
f 54/54/1 55/55/1 53/53/1

v 5 0 -3
vt 393.701 314.961
f 55/55/1 54/54/1 56/56/1

usemtl Color_M06
v 4 0 -4
vt 354.331 354.331
f 56/56/1 57/57/1 55/55/1

v 5 0 -4
vt 393.701 354.331
f 57/57/1 56/56/1 58/58/1

usemtl Color_M01
v 4 0 -5
vt 354.331 393.701
f 58/58/1 59/59/1 57/57/1

v 5 0 -5
vt 393.701 393.701
f 59/59/1 58/58/1 60/60/1

usemtl Color_M06
v 3 0 -5
vt 314.961 393.701
f 61/61/1 57/57/1 59/59/1

v 3 0 -4
vt 314.961 354.331
f 57/57/1 61/61/1 62/62/1

usemtl Color_M01
v 2 0 -5
vt 275.591 393.701
f 63/63/1 62/62/1 61/61/1

v 2 0 -4
vt 275.591 354.331
f 62/62/1 63/63/1 64/64/1

usemtl Color_M06
v 1 0 -5
vt 236.22 393.701
f 65/65/1 64/64/1 63/63/1

v 1 0 -4
vt 236.22 354.331
f 64/64/1 65/65/1 66/66/1

usemtl Color_M01
v 0 0 -5
vt 196.85 393.701
f 67/67/1 66/66/1 65/65/1

v 0 0 -4
vt 196.85 354.331
f 66/66/1 67/67/1 68/68/1

usemtl Color_M06
v -1 0 -5
vt 157.48 393.701
f 69/69/1 68/68/1 67/67/1

v -1 0 -4
vt 157.48 354.331
f 68/68/1 69/69/1 70/70/1

usemtl Color_M01
v -2 0 -5
vt 118.11 393.701
f 71/71/1 70/70/1 69/69/1

v -2 0 -4
vt 118.11 354.331
f 70/70/1 71/71/1 72/72/1

usemtl Color_M06
v -3 0 -5
vt 78.7402 393.701
f 73/73/1 72/72/1 71/71/1

v -3 0 -4
vt 78.7402 354.331
f 72/72/1 73/73/1 74/74/1

usemtl Color_M01
v -4 0 -5
vt 39.3701 393.701
f 75/75/1 74/74/1 73/73/1

v -4 0 -4
vt 39.3701 354.331
f 74/74/1 75/75/1 76/76/1

usemtl Color_M06
v -5 0 -5
vt 0 393.701
f 77/77/1 76/76/1 75/75/1

v -5 0 -4
vt 0 354.331
f 76/76/1 77/77/1 78/78/1

usemtl Color_M01
v -4 0 -3
vt 39.3701 314.961
f 78/78/1 79/79/1 76/76/1

v -5 0 -3
vt 0 314.961
f 79/79/1 78/78/1 80/80/1

usemtl Color_M06
v -4 0 -2
vt 39.3701 275.591
f 80/80/1 81/81/1 79/79/1

v -5 0 -2
vt 0 275.591
f 81/81/1 80/80/1 82/82/1

usemtl Color_M01
v -4 0 -1
vt 39.3701 236.22
f 82/82/1 83/83/1 81/81/1

v -5 0 -1
vt 0 236.22
f 83/83/1 82/82/1 84/84/1

usemtl Color_M06
v -4 0 -0
vt 39.3701 196.85
f 84/84/1 85/85/1 83/83/1

v -5 0 -0
vt 0 196.85
f 85/85/1 84/84/1 86/86/1

usemtl Color_M01
f 17/17/1 85/85/1 86/86/1

f 85/85/1 17/17/1 15/15/1

usemtl Color_M06
v -3 0 -0
vt 78.7402 196.85
f 15/15/1 87/87/1 85/85/1

f 87/87/1 15/15/1 13/13/1

usemtl Color_M01
v -2 0 -0
vt 118.11 196.85
f 13/13/1 88/88/1 87/87/1

f 88/88/1 13/13/1 11/11/1

usemtl Color_M06
v -1 0 -0
vt 157.48 196.85
f 11/11/1 89/89/1 88/88/1

f 89/89/1 11/11/1 9/9/1

usemtl Color_M01
v 0 0 -0
vt 196.85 196.85
f 9/9/1 90/90/1 89/89/1

f 90/90/1 9/9/1 7/7/1

usemtl Color_M06
f 7/7/1 3/3/1 90/90/1

f 3/3/1 7/7/1 1/1/1

usemtl Color_M01
v 0 0 -1
vt 196.85 236.22
f 3/3/1 91/91/1 90/90/1

v 1 0 -1
vt 236.22 236.22
f 91/91/1 3/3/1 92/92/1

usemtl Color_M06
f 2/2/1 92/92/1 3/3/1

v 2 0 -1
vt 275.591 236.22
f 92/92/1 2/2/1 93/93/1

usemtl Color_M01
v 3 0 -0
vt 314.961 196.85
f 94/94/1 93/93/1 2/2/1

v 3 0 -1
vt 314.961 236.22
f 93/93/1 94/94/1 95/95/1

usemtl Color_M06
f 49/49/1 95/95/1 94/94/1

f 95/95/1 49/49/1 51/51/1

usemtl Color_M01
v 3 0 -2
vt 314.961 275.591
f 51/51/1 96/96/1 95/95/1

f 96/96/1 51/51/1 53/53/1

usemtl Color_M06
v 3 0 -3
vt 314.961 314.961
f 53/53/1 97/97/1 96/96/1

f 97/97/1 53/53/1 55/55/1

usemtl Color_M01
f 55/55/1 62/62/1 97/97/1

f 62/62/1 55/55/1 57/57/1

usemtl Color_M06
f 64/64/1 97/97/1 62/62/1

v 2 0 -3
vt 275.591 314.961
f 97/97/1 64/64/1 98/98/1

usemtl Color_M01
f 66/66/1 98/98/1 64/64/1

v 1 0 -3
vt 236.22 314.961
f 98/98/1 66/66/1 99/99/1

usemtl Color_M06
f 68/68/1 99/99/1 66/66/1

v 0 0 -3
vt 196.85 314.961
f 99/99/1 68/68/1 100/100/1

usemtl Color_M01
f 70/70/1 100/100/1 68/68/1

v -1 0 -3
vt 157.48 314.961
f 100/100/1 70/70/1 101/101/1

usemtl Color_M06
f 72/72/1 101/101/1 70/70/1

v -2 0 -3
vt 118.11 314.961
f 101/101/1 72/72/1 102/102/1

usemtl Color_M01
f 74/74/1 102/102/1 72/72/1

v -3 0 -3
vt 78.7402 314.961
f 102/102/1 74/74/1 103/103/1

usemtl Color_M06
f 76/76/1 103/103/1 74/74/1

f 103/103/1 76/76/1 79/79/1

usemtl Color_M01
v -3 0 -2
vt 78.7402 275.591
f 79/79/1 104/104/1 103/103/1

f 104/104/1 79/79/1 81/81/1

usemtl Color_M06
v -3 0 -1
vt 78.7402 236.22
f 81/81/1 105/105/1 104/104/1

f 105/105/1 81/81/1 83/83/1

usemtl Color_M01
f 83/83/1 87/87/1 105/105/1

f 87/87/1 83/83/1 85/85/1

usemtl Color_M06
f 88/88/1 105/105/1 87/87/1

v -2 0 -1
vt 118.11 236.22
f 105/105/1 88/88/1 106/106/1

usemtl Color_M01
f 89/89/1 106/106/1 88/88/1

v -1 0 -1
vt 157.48 236.22
f 106/106/1 89/89/1 107/107/1

usemtl Color_M06
f 90/90/1 107/107/1 89/89/1

f 107/107/1 90/90/1 91/91/1

usemtl Color_M01
v -1 0 -2
vt 157.48 275.591
f 91/91/1 108/108/1 107/107/1

v 0 0 -2
vt 196.85 275.591
f 108/108/1 91/91/1 109/109/1

usemtl Color_M06
f 92/92/1 109/109/1 91/91/1

v 1 0 -2
vt 236.22 275.591
f 109/109/1 92/92/1 110/110/1

usemtl Color_M01
f 93/93/1 110/110/1 92/92/1

v 2 0 -2
vt 275.591 275.591
f 110/110/1 93/93/1 111/111/1

usemtl Color_M06
f 95/95/1 111/111/1 93/93/1

f 111/111/1 95/95/1 96/96/1

usemtl Color_M01
f 96/96/1 98/98/1 111/111/1

f 98/98/1 96/96/1 97/97/1

usemtl Color_M06
f 99/99/1 111/111/1 98/98/1

f 111/111/1 99/99/1 110/110/1

usemtl Color_M01
f 100/100/1 110/110/1 99/99/1

f 110/110/1 100/100/1 109/109/1

usemtl Color_M06
f 101/101/1 109/109/1 100/100/1

f 109/109/1 101/101/1 108/108/1

usemtl Color_M01
f 102/102/1 108/108/1 101/101/1

v -2 0 -2
vt 118.11 275.591
f 108/108/1 102/102/1 112/112/1

usemtl Color_M06
f 103/103/1 112/112/1 102/102/1

f 112/112/1 103/103/1 104/104/1

usemtl Color_M01
f 104/104/1 106/106/1 112/112/1

f 106/106/1 104/104/1 105/105/1

usemtl Color_M06
f 106/106/1 108/108/1 112/112/1

f 108/108/1 106/106/1 107/107/1

usemtl Color_M01
f 94/94/1 47/47/1 49/49/1

v 3 0 1
vt 314.961 157.48
f 47/47/1 94/94/1 113/113/1

usemtl Color_M06
f 2/2/1 113/113/1 94/94/1

f 113/113/1 2/2/1 4/4/1

usemtl Color_M01
v 3 0 2
vt 314.961 118.11
f 4/4/1 114/114/1 113/113/1

f 114/114/1 4/4/1 5/5/1

usemtl Color_M06
v 3 0 3
vt 314.961 78.7402
f 5/5/1 115/115/1 114/114/1

v 2 0 3
vt 275.591 78.7402
f 115/115/1 5/5/1 116/116/1

usemtl Color_M01
f 6/6/1 116/116/1 5/5/1

v 1 0 3
vt 236.22 78.7402
f 116/116/1 6/6/1 117/117/1

usemtl Color_M06
f 8/8/1 117/117/1 6/6/1

v 7.21911e-016 0 3
vt 196.85 78.7402
f 117/117/1 8/8/1 118/118/1

usemtl Color_M01
f 10/10/1 118/118/1 8/8/1

v -1 0 3
vt 157.48 78.7402
f 118/118/1 10/10/1 119/119/1

usemtl Color_M06
f 12/12/1 119/119/1 10/10/1

v -2 0 3
vt 118.11 78.7402
f 119/119/1 12/12/1 120/120/1

usemtl Color_M01
f 14/14/1 120/120/1 12/12/1

v -3 0 3
vt 78.7402 78.7402
f 120/120/1 14/14/1 121/121/1

usemtl Color_M06
f 16/16/1 121/121/1 14/14/1

f 121/121/1 16/16/1 19/19/1

usemtl Color_M01
f 19/19/1 26/26/1 121/121/1

f 26/26/1 19/19/1 21/21/1

usemtl Color_M06
f 28/28/1 121/121/1 26/26/1

f 121/121/1 28/28/1 120/120/1

usemtl Color_M01
f 28/28/1 119/119/1 120/120/1

f 119/119/1 28/28/1 30/30/1

usemtl Color_M06
f 32/32/1 119/119/1 30/30/1

f 119/119/1 32/32/1 118/118/1

usemtl Color_M01
f 34/34/1 118/118/1 32/32/1

f 118/118/1 34/34/1 117/117/1

usemtl Color_M06
f 36/36/1 117/117/1 34/34/1

f 117/117/1 36/36/1 116/116/1

usemtl Color_M01
f 38/38/1 116/116/1 36/36/1

f 116/116/1 38/38/1 115/115/1

usemtl Color_M06
f 40/40/1 115/115/1 38/38/1

f 115/115/1 40/40/1 43/43/1

usemtl Color_M01
f 43/43/1 114/114/1 115/115/1

f 114/114/1 43/43/1 45/45/1

usemtl Color_M06
f 45/45/1 113/113/1 114/114/1

f 113/113/1 45/45/1 47/47/1

g Mesh2 Model

usemtl Color_F04
v 0.125 8.01483e-032 -5.10706
vt 4.92126 201.065
v -0.125 8.01483e-032 -7.5
vt -4.92126 295.276
v -0.125 8.01483e-032 -5.10706
vt -4.92126 201.065
f 122/122/1 123/123/1 124/124/1

v 0.125 8.01483e-032 -7.5
vt 4.92126 295.276
f 123/123/1 122/122/1 125/125/1

g Mesh3 Model

usemtl Color_A04
v 7.5 0 0.125
vt 295.276 -4.92126
v 5.10706 0 -0.125
vt 201.065 4.92126
v 5.10706 0 0.125
vt 201.065 -4.92126
f 126/126/1 127/127/1 128/128/1

v 7.5 0 -0.125
vt 295.276 4.92126
f 127/127/1 126/126/1 129/129/1

