# Alias OBJ Model File
# Exported from SketchUp, (c) 2000-2012 Trimble Navigation Limited
# File units = inches

mtllib room1.mtl

g Mesh1 Group2 Group1 Model

usemtl Color_D04
v -12 32.125 12
vt 0 3.55271e-015
vn 0 -1 -0
v -12 32.125 -12
vt 0 24
v 12 32.125 12
vt 24 0
f 1/1/1 2/2/1 3/3/1

vt -3.55271e-015 6
vn -1 0 -0
v -12 38.125 12
vt -3.55271e-015 0
vt -24 6
f 1/4/2 4/5/2 2/6/2

vt -5.25907e-031 6
vn -1.4803e-016 -0 1
vt 24 6
vt -5.25907e-031 0
f 1/7/3 3/8/3 4/9/3

v 12 38.125 12
f 5/3/3 4/9/3 3/8/3

vt 0 0
vn 1 0 -0
vt 0 6
v 12 38.125 -12
f 5/10/4 3/11/4 6/3/4

v 12 32.125 -12
f 7/8/4 6/3/4 3/11/4

vn 1.4803e-016 0 -1
vt 3.55271e-015 6
vt -24 0
f 7/6/5 2/12/5 6/13/5

vt 24 24
f 7/14/1 3/3/1 2/2/1

v -12 38.125 -12
vt 3.55271e-015 0
f 8/15/5 6/13/5 2/12/5

f 8/13/2 2/6/2 4/5/2

g Mesh2 Group3 Group1 Model

usemtl Color_C05
v -48 56.125 -48
vt 0 96
vn 0 1 -0
v -48 56.125 48
vt -2.84217e-014 1.42109e-014
v 48 56.125 -48
vt -96 96
f 9/16/6 10/17/6 11/18/6

v 48 56.125 48
vt -96 0
f 12/19/6 11/18/6 10/17/6

g Mesh3 Group4 Group1 Model

usemtl Color_D03
v 24 44.125 24
vt 48 0
vn -2.22045e-016 -0 1
v -24 44.125 24
vt -2.36658e-030 0
v 24 38.125 24
vt 48 6
f 13/20/7 14/21/7 15/22/7

v -24 38.125 24
vt -2.36658e-030 6
f 16/23/7 15/22/7 14/21/7

vt 0 1.06581e-014
v -24 38.125 -24
vt 0 48
f 16/24/1 17/25/1 15/20/1

vt -1.06581e-014 6
vt -1.06581e-014 0
vt -48 6
f 16/26/2 14/27/2 17/28/2

v -24 44.125 -24
vt -48 0
f 18/29/2 17/28/2 14/27/2

vt 1.06581e-014 0
vn 2.22045e-016 0 -1
v 24 44.125 -24
vt 1.06581e-014 6
f 18/30/8 19/29/8 17/31/8

v 24 38.125 -24
f 20/28/8 17/31/8 19/29/8

vt 48 48
f 20/32/1 15/20/1 17/25/1

f 20/22/4 19/20/4 15/11/4

f 13/10/4 15/11/4 19/20/4

g Mesh4 Group1 Model

usemtl Color_D01
v -36 50.125 -36
vt 114 186
v -36 50.125 36
vt 114 114
v -48 50.125 48
vt 102 102
f 21/33/1 22/34/1 23/35/1

usemtl Color_D02
vt -186 6
vn -1 -0 3.94746e-016
v -36 44.125 -36
vt -186 12
vt -114 6
f 21/36/9 24/37/9 22/38/9

vn 1.97373e-016 0 -1
v 36 50.125 -36
vt -114 12
f 21/38/10 25/36/10 24/39/10

usemtl Color_D01
vt 186 186
v 48 50.125 -48
vt 198 198
f 25/40/1 21/33/1 26/41/1

v -48 50.125 -48
vt 102 198
f 26/41/1 21/33/1 27/42/1

f 23/35/1 27/42/1 21/33/1

usemtl Color_C05
vt -102 6
vn -1 -0 2.96059e-016
vt -102 0
vt -198 6
f 23/43/11 10/44/11 27/45/11

vn -1 -0 8.88178e-016
v -48 56.125 144
vt -6 0
f 10/44/12 23/43/12 28/46/12

vt 102 6
v 48 50.125 48
vt 198 6
vt 102 0
f 23/47/3 29/48/3 10/49/3

usemtl Color_D01
vt 198 102
f 29/50/1 23/35/1 22/34/1

usemtl Color_C05
v -48 50.125 144
f 23/35/1 29/50/1 30/47/1

v 48 50.125 144
f 31/48/1 30/47/1 29/50/1

vn 5.92119e-016 0 1
f 30/47/13 31/48/13 28/49/13

vn -5.92119e-016 0 -1
v -48 14.125 144
vt -102 42
f 30/43/14 31/45/14 32/51/14

v 54 50.125 150
vt -204 5.68434e-014
f 31/45/6 30/43/6 33/52/6

v -54 50.125 150
f 33/52/6 30/43/6 34/19/6

vt -102 102
f 30/43/6 23/53/6 34/19/6

vt -6 6
f 30/54/12 28/46/12 23/43/12

vt 6 6
vn 1 0 -8.88178e-016
vt 6 42
f 30/55/15 32/56/15 23/47/15

v -48 14.125 48
vt 102 42
f 35/57/15 23/47/15 32/56/15

vn -7.40149e-017 0 -1
v -144 14.125 48
vt -6 42
f 35/51/16 36/58/16 23/43/16

v -54 14.125 54
vt 96 96
vt 6 102
f 35/35/1 37/59/1 36/60/1

v -54 14.125 150
vt 96 0
f 38/61/1 37/59/1 35/35/1

vt 8.52651e-014 42
vt 8.52651e-014 6
vt -96 42
f 38/62/12 34/63/12 37/64/12

vt 96 42
vn 5.26328e-016 0 1
v 54 14.125 150
vt 204 42
vt 96 6
f 38/65/17 39/66/17 34/67/17

vt 204 5.68434e-014
f 39/68/1 38/61/1 32/47/1

f 32/47/1 38/61/1 35/35/1

v 48 14.125 144
f 40/48/1 39/68/1 32/47/1

v 54 14.125 54
vt 204 96
f 41/69/1 39/68/1 40/48/1

vn 1 0 -1.18424e-015
v 54 50.125 54
vt -1.84741e-013 42
f 41/65/18 42/67/18 39/70/18

vn 7.40149e-017 0 1
v 150 14.125 54
vt 300 42
vt 204 6
f 41/66/19 43/71/19 42/72/19

vt 300 96
v 144 14.125 48
vt 294 102
f 43/73/1 41/69/1 44/74/1

v 48 14.125 48
f 44/74/1 41/69/1 45/50/1

f 40/48/1 45/50/1 41/69/1

vn -1 -0 1.18424e-015
f 40/58/20 31/54/20 45/51/20

vt -198 42
f 40/75/14 32/51/14 31/45/14

f 29/43/20 45/51/20 31/54/20

v 144 50.125 48
vt -294 6
f 29/45/16 46/76/16 45/75/16

f 29/50/1 26/41/1 46/74/1

usemtl Color_D01
f 29/50/1 25/40/1 26/41/1

v 36 50.125 36
vt 186 114
f 25/40/1 29/50/1 47/77/1

f 47/77/1 29/50/1 22/34/1

usemtl Color_D02
vt 186 6
vn -1.97373e-016 -0 1
vt 114 6
v 36 44.125 36
vt 186 12
f 47/78/21 22/79/21 48/80/21

v -36 44.125 36
vt 114 12
f 49/81/21 48/80/21 22/79/21

vt 126 126
f 49/34/1 14/82/1 48/77/1

vt 126 174
f 14/82/1 49/34/1 18/83/1

f 49/34/1 24/33/1 18/83/1

f 49/39/9 22/38/9 24/37/9

v 36 44.125 -36
f 50/40/1 18/83/1 24/33/1

v 24 44.125 -24
vt 174 174
f 51/84/1 18/83/1 50/40/1

f 48/77/1 51/84/1 50/40/1

vt 174 126
f 51/84/1 48/77/1 13/85/1

f 13/85/1 48/77/1 14/82/1

f 50/80/4 25/78/4 48/81/4

f 50/37/10 24/39/10 25/36/10

f 47/79/4 48/81/4 25/78/4

usemtl Color_C05
v 48 56.125 -48
vt 198 0
f 26/48/4 52/86/4 29/47/4

vt -198 0
vn -2.22045e-016 0 -1
v 144 56.125 -48
vt -294 0
f 52/87/22 53/88/22 26/45/22

vt -198 198
vt -198 102
vt -294 198
f 52/89/6 12/90/6 53/91/6

f 12/49/4 29/47/4 52/86/4

vt 294 6
f 29/48/19 46/92/19 12/86/19

vt -294 102
vt -204 96
f 46/93/6 29/90/6 42/94/6

f 31/45/6 42/94/6 29/90/6

f 42/94/6 31/45/6 33/52/6

vt -1.84741e-013 6
f 33/95/18 39/70/18 42/67/18

f 33/72/17 34/67/17 39/66/17

f 29/47/18 12/49/18 31/55/18

f 12/86/3 10/49/3 29/48/3

f 10/53/6 28/43/6 12/90/6

v 48 56.125 144
f 54/45/6 12/90/6 28/43/6

vt 6 0
f 54/96/18 31/55/18 12/49/18

f 54/86/13 28/49/13 31/48/13

v 150 50.125 54
vt -300 96
f 55/97/6 46/93/6 42/94/6

v 150 50.125 -54
vt -300 204
f 56/98/6 46/93/6 55/97/6

v 144 50.125 -48
f 46/93/6 56/98/6 57/91/6

v 54 50.125 -54
vt -204 204
f 56/98/6 58/99/6 57/91/6

vt -204 6
vt -300 6
v 54 14.125 -54
vt -204 42
f 58/100/22 56/101/22 59/102/22

v 150 14.125 -54
vt -300 42
f 60/103/22 59/102/22 56/101/22

vt 300 204
v 144 14.125 -48
vt 294 198
vt 204 204
f 60/104/1 61/105/1 59/106/1

f 43/73/1 61/105/1 60/104/1

f 61/105/1 43/73/1 44/74/1

f 44/51/2 46/43/2 61/75/2

vt -294 42
f 44/107/16 45/75/16 46/76/16

f 57/45/2 61/75/2 46/43/2

vn 2.22045e-016 0 1
vt 294 42
f 57/92/23 26/48/23 61/108/23

f 57/105/1 46/74/1 26/41/1

f 57/48/4 53/86/4 46/47/4

f 57/76/22 26/45/22 53/88/22

f 57/91/6 58/99/6 26/89/6

v 54 50.125 -150
vt -204 300
f 58/99/6 62/109/6 26/89/6

vt 300 6
f 58/72/18 59/66/18 62/110/18

v 54 14.125 -150
f 63/71/18 62/110/18 59/66/18

vn -5.26328e-016 0 -1
v -54 14.125 -150
f 63/102/24 64/64/24 62/100/24

vt 204 300
v -48 14.125 -144
vt 102 294
vt 96 300
f 63/111/1 65/112/1 64/113/1

v 48 14.125 -144
vt 198 294
f 66/114/1 65/112/1 63/111/1

vt 198 42
v -48 50.125 -144
f 65/57/13 66/115/13 67/47/13

v 48 50.125 -144
f 68/48/13 67/47/13 66/115/13

f 67/112/1 68/114/1 27/42/1

v 48 56.125 -144
f 68/45/14 67/43/14 69/87/14

vt -198 294
vt -102 294
f 68/116/6 62/109/6 67/117/6

f 26/89/6 62/109/6 68/116/6

f 26/41/1 27/42/1 68/114/1

f 26/45/5 27/43/5 52/87/5

f 9/44/5 52/87/5 27/43/5

vt -102 198
f 52/89/6 69/116/6 9/118/6

vt 294 0
f 52/86/18 26/48/18 69/119/18

f 68/92/18 69/119/18 26/48/18

f 68/76/20 66/107/20 26/45/20

v 48 14.125 -48
f 70/75/20 26/45/20 66/107/20

f 70/115/23 61/108/23 26/48/23

f 61/105/1 70/41/1 59/106/1

f 59/106/1 70/41/1 63/111/1

f 70/41/1 66/114/1 63/111/1

v -48 56.125 -144
f 71/117/6 9/118/6 69/116/6

vn -1 -0 5.92119e-016
f 71/88/25 67/76/25 9/87/25

f 71/44/14 69/87/14 67/43/14

f 27/45/25 9/87/25 67/76/25

f 9/87/11 27/45/11 10/44/11

v -144 50.125 -48
f 27/43/16 72/54/16 9/44/16

vt 6 198
f 27/42/1 23/35/1 72/120/1

v -144 50.125 48
f 73/60/1 72/120/1 23/35/1

v -144 56.125 48
f 73/43/2 74/44/2 72/45/2

f 73/55/19 23/47/19 74/96/19

f 73/54/16 23/43/16 36/58/16

vt -6 102
v -54 50.125 54
f 23/53/6 73/121/6 75/18/6

v -150 50.125 54
f 75/18/6 73/121/6 76/16/6

vt -6 198
f 72/122/6 76/16/6 73/121/6

v -150 50.125 -54
vt 0 204
f 76/16/6 72/122/6 77/123/6

v -54 50.125 -54
vt -96 204
f 78/124/6 77/123/6 72/122/6

vt -1.5099e-014 6
vt -96 6
v -150 14.125 -54
vt -1.5099e-014 42
f 77/125/16 78/126/16 79/127/16

v -54 14.125 -54
f 80/64/16 79/127/16 78/126/16

vt 96 204
v -144 14.125 -48
f 80/128/1 81/120/1 79/123/1

v -48 14.125 -48
f 82/42/1 81/120/1 80/128/1

f 81/56/19 82/57/19 72/55/19

f 27/47/19 72/55/19 82/57/19

f 27/118/6 78/124/6 72/122/6

f 67/117/6 78/124/6 27/118/6

v -54 50.125 -150
vt -96 300
f 78/124/6 67/117/6 83/129/6

f 62/109/6 83/129/6 67/117/6

f 83/126/24 62/100/24 64/64/24

f 83/101/25 64/103/25 78/100/25

f 80/102/25 78/100/25 64/103/25

f 80/128/1 64/113/1 65/112/1

f 65/112/1 82/42/1 80/128/1

vn 1 0 -5.92119e-016
f 65/108/26 67/92/26 82/115/26

f 27/48/26 82/115/26 67/92/26

f 81/115/4 72/48/4 36/57/4

f 73/47/4 36/57/4 72/48/4

f 36/60/1 79/123/1 81/120/1

v -150 14.125 54
f 79/123/1 36/60/1 84/16/1

f 37/59/1 84/16/1 36/60/1

vt 7.10543e-015 42
vt 7.10543e-015 6
f 84/130/19 37/65/19 76/131/19

f 75/67/19 76/131/19 37/65/19

f 75/126/12 37/64/12 34/63/12

f 34/19/6 23/53/6 75/18/6

f 84/64/2 76/126/2 79/102/2

f 77/100/2 79/102/2 76/126/2

f 10/49/19 74/96/19 23/47/19

f 10/53/6 9/118/6 74/121/6

v -144 56.125 -48
f 85/122/6 74/121/6 9/118/6

f 85/87/2 72/45/2 74/44/2

f 85/46/16 9/44/16 72/54/16

v 144 56.125 48
f 86/49/4 46/47/4 53/86/4

f 86/119/19 12/86/19 46/92/19

f 86/93/6 53/91/6 12/90/6

f 60/66/4 56/72/4 43/65/4

f 55/67/4 43/65/4 56/72/4

f 55/110/19 42/72/19 43/71/19

g Mesh5 Group6 Group5 Model

usemtl Color_D04
v 12 -31.75 12
v -12 -31.75 -12
v -12 -31.75 12
f 87/3/6 88/2/6 89/1/6

v 12 -31.75 -12
f 88/2/6 87/3/6 90/14/6

v 12 -37.75 -12
f 87/11/4 91/3/4 90/8/4

v 12 -37.75 12
f 91/3/4 87/11/4 92/10/4

vn -1.4803e-016 0 1
v -12 -37.75 12
f 87/8/27 93/9/27 92/3/27

f 93/9/27 87/8/27 89/7/27

f 88/6/2 93/5/2 89/4/2

v -12 -37.75 -12
f 93/5/2 88/6/2 94/13/2

f 88/12/5 91/13/5 94/15/5

f 91/13/5 88/12/5 90/6/5

g Mesh6 Group7 Group5 Model

usemtl Color_C05
v 48 -55.75 -48
v -48 -55.75 48
v -48 -55.75 -48
f 95/18/1 96/17/1 97/16/1

v 48 -55.75 48
f 96/17/1 95/18/1 98/19/1

g Mesh7 Group8 Group5 Model

usemtl Color_D03
v 24 -37.75 24
vn -2.22045e-016 0 1
v -24 -43.75 24
v 24 -43.75 24
f 99/22/28 100/21/28 101/20/28

v -24 -37.75 24
f 100/21/28 99/22/28 102/23/28

v -24 -37.75 -24
f 99/20/6 103/25/6 102/24/6

v 24 -37.75 -24
f 103/25/6 99/20/6 104/32/6

v 24 -43.75 -24
f 99/11/4 105/20/4 104/22/4

f 105/20/4 99/11/4 101/10/4

f 105/29/8 103/31/8 104/28/8

v -24 -43.75 -24
f 103/31/8 105/29/8 106/30/8

f 100/27/2 103/28/2 106/29/2

f 103/28/2 100/27/2 102/26/2

g Mesh8 Group5 Model

usemtl Color_D01
v -48 -49.75 48
v -36 -49.75 36
v -36 -49.75 -36
f 107/35/6 108/34/6 109/33/6

v 48 -49.75 48
f 108/34/6 107/35/6 110/50/6

usemtl Color_C05
v -48 -49.75 144
f 111/47/6 110/50/6 107/35/6

v 48 -49.75 144
f 110/50/6 111/47/6 112/48/6

v -48 -55.75 144
f 113/49/13 112/48/13 111/47/13

v 48 -55.75 144
f 112/48/13 113/49/13 114/86/13

f 113/43/1 98/90/1 114/45/1

f 98/90/1 113/43/1 96/53/1

vn -1 0 8.88178e-016
f 113/46/29 107/43/29 96/44/29

f 107/43/29 113/46/29 111/54/29

v -48 -13.75 144
f 107/47/15 115/56/15 111/55/15

v -48 -13.75 48
f 115/56/15 107/47/15 116/57/15

v -144 -13.75 48
f 107/43/16 117/58/16 116/51/16

v -144 -49.75 48
f 117/58/16 107/43/16 118/54/16

v -144 -49.75 -48
f 107/35/6 119/120/6 118/60/6

v -48 -49.75 -48
f 119/120/6 107/35/6 120/42/6

usemtl Color_D01
f 109/33/6 120/42/6 107/35/6

v 48 -49.75 -48
f 120/42/6 109/33/6 121/41/6

v 36 -49.75 -36
f 121/41/6 109/33/6 122/40/6

usemtl Color_D02
v -36 -43.75 -36
f 123/39/10 122/36/10 109/38/10

v 36 -43.75 -36
f 122/36/10 123/39/10 124/37/10

f 123/33/6 106/83/6 124/40/6

v -36 -43.75 36
f 106/83/6 123/33/6 125/34/6

vn -1 0 3.94746e-016
f 123/37/30 108/38/30 125/39/30

f 108/38/30 123/37/30 109/36/30

vn -1.97373e-016 0 1
v 36 -43.75 36
f 108/79/31 126/80/31 125/81/31

v 36 -49.75 36
f 126/80/31 108/79/31 127/78/31

usemtl Color_D01
f 108/34/6 110/50/6 127/77/6

f 127/77/6 110/50/6 122/40/6

f 121/41/6 122/40/6 110/50/6

usemtl Color_C05
v 144 -49.75 48
f 128/74/6 121/41/6 110/50/6

v 144 -49.75 -48
f 121/41/6 128/74/6 129/105/6

v 144 -55.75 -48
f 128/47/4 130/86/4 129/48/4

v 144 -55.75 48
f 130/86/4 128/47/4 131/49/4

f 128/92/19 98/86/19 131/119/19

f 98/86/19 128/92/19 110/48/19

v 48 -13.75 48
f 132/75/16 128/76/16 110/45/16

v 144 -13.75 48
f 128/76/16 132/75/16 133/107/16

v 54 -13.75 54
f 132/50/6 134/69/6 133/74/6

v 48 -13.75 144
f 134/69/6 132/50/6 135/48/6

vn -1 0 1.18424e-015
f 132/51/32 112/54/32 135/58/32

f 112/54/32 132/51/32 110/43/32

f 112/55/18 98/49/18 110/47/18

f 98/49/18 112/55/18 114/96/18

v 48 -55.75 -48
f 136/86/4 110/47/4 98/49/4

f 110/47/4 136/86/4 121/48/4

f 121/45/22 130/88/22 136/87/22

f 130/88/22 121/45/22 129/76/22

v 144 -13.75 -48
f 137/108/23 121/48/23 129/92/23

v 48 -13.75 -48
f 121/48/23 137/108/23 138/115/23

v 54 -13.75 -54
f 139/106/6 138/41/6 137/105/6

v 54 -13.75 -150
f 140/111/6 138/41/6 139/106/6

v 48 -13.75 -144
f 140/111/6 141/114/6 138/41/6

v -48 -13.75 -144
f 140/111/6 142/112/6 141/114/6

v -54 -13.75 -150
f 143/113/6 142/112/6 140/111/6

v -54 -13.75 -54
f 142/112/6 143/113/6 144/128/6

vn -1 0 5.92119e-016
v -54 -49.75 -54
f 143/103/33 145/100/33 144/102/33

v -54 -49.75 -150
f 145/100/33 143/103/33 146/101/33

v 54 -49.75 -150
f 143/64/24 147/100/24 146/126/24

f 147/100/24 143/64/24 140/102/24

f 139/66/18 147/110/18 140/71/18

v 54 -49.75 -54
f 147/110/18 139/66/18 148/72/18

v 150 -49.75 -54
f 139/102/22 149/101/22 148/100/22

v 150 -13.75 -54
f 149/101/22 139/102/22 150/103/22

f 139/106/6 137/105/6 150/104/6

v 150 -13.75 54
f 150/104/6 137/105/6 151/73/6

f 133/74/6 151/73/6 137/105/6

f 133/74/6 134/69/6 151/73/6

v 54 -49.75 54
f 152/72/19 151/71/19 134/66/19

v 150 -49.75 54
f 151/71/19 152/72/19 153/110/19

f 152/94/1 128/93/1 153/97/1

f 152/94/1 110/90/1 128/93/1

f 110/90/1 152/94/1 112/45/1

v 54 -49.75 150
f 154/52/1 112/45/1 152/94/1

f 154/52/1 111/43/1 112/45/1

v -54 -49.75 150
f 155/19/1 111/43/1 154/52/1

f 155/19/1 107/53/1 111/43/1

v -54 -49.75 54
f 156/18/1 107/53/1 155/19/1

f 156/18/1 118/121/1 107/53/1

v -150 -49.75 54
f 157/16/1 118/121/1 156/18/1

f 118/121/1 157/16/1 119/122/1

v -150 -49.75 -54
f 158/123/1 119/122/1 157/16/1

f 119/122/1 158/123/1 145/124/1

v -150 -13.75 -54
f 159/127/16 145/126/16 158/125/16

f 145/126/16 159/127/16 144/64/16

v -144 -13.75 -48
f 159/123/6 160/120/6 144/128/6

f 160/120/6 159/123/6 117/60/6

v -150 -13.75 54
f 161/16/6 117/60/6 159/123/6

v -54 -13.75 54
f 117/60/6 161/16/6 162/59/6

f 157/131/19 162/65/19 161/130/19

f 162/65/19 157/131/19 156/67/19

f 155/63/29 162/64/29 156/126/29

v -54 -13.75 150
f 162/64/29 155/63/29 163/62/29

v 54 -13.75 150
f 155/67/17 164/66/17 163/65/17

f 164/66/17 155/67/17 154/72/17

f 152/67/18 164/70/18 154/95/18

f 164/70/18 152/67/18 134/65/18

f 135/48/6 164/68/6 134/69/6

f 115/47/6 164/68/6 135/48/6

f 115/47/6 163/61/6 164/68/6

f 116/35/6 163/61/6 115/47/6

f 116/35/6 162/59/6 163/61/6

f 117/60/6 162/59/6 116/35/6

f 112/45/14 115/51/14 135/75/14

f 115/51/14 112/45/14 111/43/14

f 159/102/2 157/126/2 161/64/2

f 157/126/2 159/102/2 158/100/2

f 117/57/4 119/48/4 160/115/4

f 119/48/4 117/57/4 118/47/4

v -144 -55.75 48
f 119/45/2 165/44/2 118/43/2

v -144 -55.75 -48
f 165/44/2 119/45/2 166/87/2

f 119/54/16 97/44/16 166/46/16

f 97/44/16 119/54/16 120/43/16

v -48 -13.75 -48
f 167/57/19 119/55/19 120/47/19

f 119/55/19 167/57/19 160/56/19

f 144/128/6 160/120/6 167/42/6

f 144/128/6 167/42/6 142/112/6

v -48 -49.75 -144
f 167/115/26 168/92/26 142/108/26

f 168/92/26 167/115/26 120/48/26

v 48 -49.75 -144
f 120/42/6 169/114/6 168/112/6

f 169/114/6 120/42/6 121/41/6

f 136/87/5 120/43/5 121/45/5

f 120/43/5 136/87/5 97/44/5

v 48 -55.75 -144
f 97/118/1 170/116/1 136/89/1

v -48 -55.75 -144
f 170/116/1 97/118/1 171/117/1

f 97/87/33 168/76/33 171/88/33

f 168/76/33 97/87/33 120/45/33

vn -1 0 2.96059e-016
f 96/44/34 120/45/34 97/87/34

f 120/45/34 96/44/34 107/43/34

f 96/49/27 110/48/27 107/47/27

f 110/48/27 96/49/27 98/86/27

f 107/47/19 165/96/19 96/49/19

f 165/96/19 107/47/19 118/55/19

f 165/121/1 97/118/1 96/53/1

f 97/118/1 165/121/1 166/122/1

f 120/118/1 145/124/1 168/117/1

f 119/122/1 145/124/1 120/118/1

f 146/129/1 168/117/1 145/124/1

f 168/117/1 146/129/1 147/109/1

f 168/117/1 147/109/1 169/116/1

f 169/116/1 147/109/1 121/89/1

f 121/89/1 147/109/1 148/99/1

f 121/89/1 148/99/1 129/91/1

f 129/91/1 148/99/1 149/98/1

f 129/91/1 149/98/1 128/93/1

f 153/97/1 128/93/1 149/98/1

f 149/72/4 151/65/4 153/67/4

f 151/65/4 149/72/4 150/66/4

f 128/43/2 137/75/2 129/45/2

f 137/75/2 128/43/2 133/51/2

f 121/48/18 170/119/18 169/92/18

f 170/119/18 121/48/18 136/86/18

f 170/87/14 168/43/14 169/45/14

f 168/43/14 170/87/14 171/44/14

f 141/115/13 168/47/13 169/48/13

f 168/47/13 141/115/13 142/57/13

f 121/45/32 141/107/32 169/76/32

f 141/107/32 121/45/32 138/75/32

f 130/91/1 98/90/1 136/89/1

f 98/90/1 130/91/1 131/93/1

usemtl Color_D02
f 122/78/4 126/81/4 127/79/4

f 126/81/4 122/78/4 124/80/4

v 24 -43.75 -24
f 124/40/6 172/84/6 126/77/6

f 124/40/6 106/83/6 172/84/6

f 101/85/6 126/77/6 172/84/6

f 100/82/6 126/77/6 101/85/6

f 126/77/6 100/82/6 125/34/6

f 106/83/6 125/34/6 100/82/6

