# Alias OBJ Model File
# Exported from SketchUp, (c) 2000-2012 Trimble Navigation Limited
# File units = inches

mtllib colortest.mtl

g Mesh1 Group1 Model

usemtl Color_F05
v 0 12 -66
vt -12 12
vn -1 0 -0
v 0 0 -54
vt 0 0
v 0 12 -54
vt 0 12
f 1/1/1 2/2/1 3/3/1

v 0 0 -66
vt -12 0
f 2/2/1 1/1/1 4/4/1

vn 0 0 -1
v 12 0 -66
f 1/3/2 5/4/2 4/2/2

v 12 12 -66
f 5/4/2 1/3/2 6/1/2

vn 0 1 -0
v 12 12 -54
vt 12 0
vt 12 12
f 1/3/3 7/5/3 6/6/3

f 7/5/3 1/3/3 3/2/3

vn 0 0 1
f 2/2/4 7/6/4 3/3/4

v 12 0 -54
f 7/6/4 2/2/4 8/5/4

vn 0 -1 -0
f 2/2/5 5/1/5 8/4/5

f 5/1/5 2/2/5 4/3/5

vn 1 0 -0
f 5/5/6 7/3/6 8/2/6

f 7/3/6 5/5/6 6/6/6

g Mesh2 Group2 Model

usemtl Color_I05
v 0 66 -12
v 0 54 -0
v 0 66 -0
f 9/1/1 10/2/1 11/3/1

v 0 54 -12
f 10/2/1 9/1/1 12/4/1

v 12 54 -12
f 9/3/2 13/4/2 12/2/2

v 12 66 -12
f 13/4/2 9/3/2 14/1/2

v 12 66 -0
f 9/3/3 15/5/3 14/6/3

f 15/5/3 9/3/3 11/2/3

f 10/2/4 15/6/4 11/3/4

v 12 54 -0
f 15/6/4 10/2/4 16/5/4

f 10/2/5 13/1/5 16/4/5

f 13/1/5 10/2/5 12/3/5

f 13/5/6 15/3/6 16/2/6

f 15/3/6 13/5/6 14/6/6

g Mesh3 Group3 Model

usemtl Color_F07
v 0 12 -84
v 0 0 -72
v 0 12 -72
f 17/1/1 18/2/1 19/3/1

v 0 0 -84
f 18/2/1 17/1/1 20/4/1

v 12 0 -84
f 17/3/2 21/4/2 20/2/2

v 12 12 -84
f 21/4/2 17/3/2 22/1/2

v 12 12 -72
f 17/3/3 23/5/3 22/6/3

f 23/5/3 17/3/3 19/2/3

f 18/2/4 23/6/4 19/3/4

v 12 0 -72
f 23/6/4 18/2/4 24/5/4

f 18/2/5 21/1/5 24/4/5

f 21/1/5 18/2/5 20/3/5

f 21/5/6 23/3/6 24/2/6

f 23/3/6 21/5/6 22/6/6

g Mesh4 Group4 Model

usemtl Color_I01
v 0 30 -12
v 0 18 -0
v 0 30 -0
f 25/1/1 26/2/1 27/3/1

v 0 18 -12
f 26/2/1 25/1/1 28/4/1

v 12 18 -12
f 25/3/2 29/4/2 28/2/2

v 12 30 -12
f 29/4/2 25/3/2 30/1/2

v 12 30 -0
f 25/3/3 31/5/3 30/6/3

f 31/5/3 25/3/3 27/2/3

f 26/2/4 31/6/4 27/3/4

v 12 18 -0
f 31/6/4 26/2/4 32/5/4

f 26/2/5 29/1/5 32/4/5

f 29/1/5 26/2/5 28/3/5

f 29/5/6 31/3/6 32/2/6

f 31/3/6 29/5/6 30/6/6

g Mesh5 Group5 Model

usemtl Color_F03
v 0 12 -48
v 0 0 -36
v 0 12 -36
f 33/1/1 34/2/1 35/3/1

v 0 0 -48
f 34/2/1 33/1/1 36/4/1

v 12 0 -48
f 33/3/2 37/4/2 36/2/2

v 12 12 -48
f 37/4/2 33/3/2 38/1/2

v 12 12 -36
f 33/3/3 39/5/3 38/6/3

f 39/5/3 33/3/3 35/2/3

f 34/2/4 39/6/4 35/3/4

v 12 0 -36
f 39/6/4 34/2/4 40/5/4

f 34/2/5 37/1/5 40/4/5

f 37/1/5 34/2/5 36/3/5

f 37/5/6 39/3/6 40/2/6

f 39/3/6 37/5/6 38/6/6

g Mesh6 Group6 Model

usemtl Color_A05
v 54 12 -12
v 54 0 -0
v 54 12 -0
f 41/1/1 42/2/1 43/3/1

v 54 0 -12
f 42/2/1 41/1/1 44/4/1

v 66 0 -12
f 41/3/2 45/4/2 44/2/2

v 66 12 -12
f 45/4/2 41/3/2 46/1/2

v 66 12 -0
f 41/3/3 47/5/3 46/6/3

f 47/5/3 41/3/3 43/2/3

f 42/2/4 47/6/4 43/3/4

v 66 0 -0
f 47/6/4 42/2/4 48/5/4

f 42/2/5 45/1/5 48/4/5

f 45/1/5 42/2/5 44/3/5

f 45/5/6 47/3/6 48/2/6

f 47/3/6 45/5/6 46/6/6

g Mesh7 Group7 Model

usemtl Color_A01
v 18 12 -12
v 18 0 -0
v 18 12 -0
f 49/1/1 50/2/1 51/3/1

v 18 0 -12
f 50/2/1 49/1/1 52/4/1

v 30 0 -12
f 49/3/2 53/4/2 52/2/2

v 30 12 -12
f 53/4/2 49/3/2 54/1/2

v 30 12 -0
f 49/3/3 55/5/3 54/6/3

f 55/5/3 49/3/3 51/2/3

f 50/2/4 55/6/4 51/3/4

v 30 0 -0
f 55/6/4 50/2/4 56/5/4

f 50/2/5 53/1/5 56/4/5

f 53/1/5 50/2/5 52/3/5

f 53/5/6 55/3/6 56/2/6

f 55/3/6 53/5/6 54/6/6

g Mesh8 Group8 Model

usemtl FrontColor
v 0 12 -12
v 0 0 -0
v 0 12 -0
f 57/1/1 58/2/1 59/3/1

v 0 0 -12
f 58/2/1 57/1/1 60/4/1

v 12 0 -12
f 57/3/2 61/4/2 60/2/2

v 12 12 -12
f 61/4/2 57/3/2 62/1/2

v 12 12 -0
f 57/3/3 63/5/3 62/6/3

f 63/5/3 57/3/3 59/2/3

f 58/2/4 63/6/4 59/3/4

v 12 0 -0
f 63/6/4 58/2/4 64/5/4

f 58/2/5 61/1/5 64/4/5

f 61/1/5 58/2/5 60/3/5

f 61/5/6 63/3/6 64/2/6

f 63/3/6 61/5/6 62/6/6

g Mesh9 Group9 Model

usemtl Color_I03
v 0 48 -12
v 0 36 -0
v 0 48 -0
f 65/1/1 66/2/1 67/3/1

v 0 36 -12
f 66/2/1 65/1/1 68/4/1

v 12 36 -12
f 65/3/2 69/4/2 68/2/2

v 12 48 -12
f 69/4/2 65/3/2 70/1/2

v 12 48 -0
f 65/3/3 71/5/3 70/6/3

f 71/5/3 65/3/3 67/2/3

f 66/2/4 71/6/4 67/3/4

v 12 36 -0
f 71/6/4 66/2/4 72/5/4

f 66/2/5 69/1/5 72/4/5

f 69/1/5 66/2/5 68/3/5

f 69/5/6 71/3/6 72/2/6

f 71/3/6 69/5/6 70/6/6

g Mesh10 Group10 Model

usemtl Color_A07
v 72 12 -12
v 72 0 -0
v 72 12 -0
f 73/1/1 74/2/1 75/3/1

v 72 0 -12
f 74/2/1 73/1/1 76/4/1

v 84 0 -12
f 73/3/2 77/4/2 76/2/2

v 84 12 -12
f 77/4/2 73/3/2 78/1/2

v 84 12 -0
f 73/3/3 79/5/3 78/6/3

f 79/5/3 73/3/3 75/2/3

f 74/2/4 79/6/4 75/3/4

v 84 0 -0
f 79/6/4 74/2/4 80/5/4

f 74/2/5 77/1/5 80/4/5

f 77/1/5 74/2/5 76/3/5

f 77/5/6 79/3/6 80/2/6

f 79/3/6 77/5/6 78/6/6

g Mesh11 Group11 Model

usemtl Color_F01
v 0 12 -30
v 0 0 -18
v 0 12 -18
f 81/1/1 82/2/1 83/3/1

v 0 0 -30
f 82/2/1 81/1/1 84/4/1

v 12 0 -30
f 81/3/2 85/4/2 84/2/2

v 12 12 -30
f 85/4/2 81/3/2 86/1/2

v 12 12 -18
f 81/3/3 87/5/3 86/6/3

f 87/5/3 81/3/3 83/2/3

f 82/2/4 87/6/4 83/3/4

v 12 0 -18
f 87/6/4 82/2/4 88/5/4

f 82/2/5 85/1/5 88/4/5

f 85/1/5 82/2/5 84/3/5

f 85/5/6 87/3/6 88/2/6

f 87/3/6 85/5/6 86/6/6

g Mesh12 Group12 Model

usemtl Color_I07
v 0 84 -12
v 0 72 -0
v 0 84 -0
f 89/1/1 90/2/1 91/3/1

v 0 72 -12
f 90/2/1 89/1/1 92/4/1

v 12 72 -12
f 89/3/2 93/4/2 92/2/2

v 12 84 -12
f 93/4/2 89/3/2 94/1/2

v 12 84 -0
f 89/3/3 95/5/3 94/6/3

f 95/5/3 89/3/3 91/2/3

f 90/2/4 95/6/4 91/3/4

v 12 72 -0
f 95/6/4 90/2/4 96/5/4

f 90/2/5 93/1/5 96/4/5

f 93/1/5 90/2/5 92/3/5

f 93/5/6 95/3/6 96/2/6

f 95/3/6 93/5/6 94/6/6

g Mesh13 Group13 Model

usemtl Color_A03
v 36 12 -12
v 36 0 -0
v 36 12 -0
f 97/1/1 98/2/1 99/3/1

v 36 0 -12
f 98/2/1 97/1/1 100/4/1

v 48 0 -12
f 97/3/2 101/4/2 100/2/2

v 48 12 -12
f 101/4/2 97/3/2 102/1/2

v 48 12 -0
f 97/3/3 103/5/3 102/6/3

f 103/5/3 97/3/3 99/2/3

f 98/2/4 103/6/4 99/3/4

v 48 0 -0
f 103/6/4 98/2/4 104/5/4

f 98/2/5 101/1/5 104/4/5

f 101/1/5 98/2/5 100/3/5

f 101/5/6 103/3/6 104/2/6

f 103/3/6 101/5/6 102/6/6

g Mesh14 Model

usemtl Color_D02
v 69.1875 -7 -72
vt -69.1875 72
v -74.8125 -7 72
vt 74.8125 -72
v -74.8125 -7 -72
vt 74.8125 72
f 105/7/5 106/8/5 107/9/5

v 69.1875 -7 72
vt -69.1875 -72
f 106/8/5 105/7/5 108/10/5

vt 72 -7
v 69.1875 -1 72
vt -72 -1
vt -72 -7
f 105/11/6 109/12/6 108/13/6

v 69.1875 -1 -72
vt 72 -1
f 109/12/6 105/11/6 110/14/6

vt -69.1875 -7
v -74.8125 -1 -72
vt 74.8125 -1
vt -69.1875 -1
f 105/15/2 111/16/2 110/17/2

vt 74.8125 -7
f 111/16/2 105/15/2 107/18/2

f 106/11/1 111/12/1 107/13/1

v -74.8125 -1 72
f 111/12/1 106/11/1 112/14/1

vt -74.8125 -7
vt 69.1875 -1
vt -74.8125 -1
f 106/19/4 109/20/4 112/21/4

vt 69.1875 -7
f 109/20/4 106/19/4 108/22/4

vt 69.1875 -72
vt -74.8125 72
vt -74.8125 -72
f 109/23/3 111/24/3 112/25/3

vt 69.1875 72
f 111/24/3 109/23/3 110/26/3

