# Alias OBJ Model File
# Exported from SketchUp, (c) 2000-2012 Trimble Navigation Limited
# File units = inches

mtllib cone.mtl

g Mesh1 Model

usemtl Color_E05
v 0.207055 -0.772741 -2.24826e-015
vt 0.207055 -0.772741
vn 0 -2.90946e-015 1
v -0.207055 -0.772741 -2.24826e-015
vt -0.207055 -0.772741
v 5.73462e-016 -0.8 -2.32757e-015
vt 5.73462e-016 -0.8
f 1/1/1 2/2/1 3/3/1

v 0.4 -0.69282 -2.01574e-015
vt 0.4 -0.69282
f 2/2/1 1/1/1 4/4/1

usemtl Color_M02
v 1.03528 -3.8637 -6
vt 4.35641 -5.70351
vn 0.22837 -0.852287 0.470588
vt 0.324041 -0.208235
vn 0.441176 -0.76414 0.470588
vt 0.167736 -0.34674
f 5/5/2 4/6/3 1/7/2

v 2 -3.4641 -6
vt 5.13794 -5.01098
f 4/6/3 5/5/2 6/8/3

usemtl Color_E05
vt -1.03528 -3.8637
vn 0 0 -1
v -2 -3.4641 -6
vt 2 -3.4641
vt -2 -3.4641
f 5/9/4 7/10/4 6/11/4

v -1.03528 -3.8637 -6
vt 1.03528 -3.8637
f 5/9/4 8/12/4 7/10/4

v 2.44929e-016 -4 -6
vt -2.44929e-016 -4
f 8/12/4 5/9/4 9/13/4

usemtl Color_M02
vt 2.44304 -6.74833
vt 1.11456e-015 -0.385181
vn 2.02581e-016 -0.882353 0.470588
vt 1.43793 -7.03141
f 5/14/2 3/15/5 9/16/5

vt 0.201021 -0.328565
f 3/15/5 5/14/2 1/17/2

vt -0.201021 -0.328565
vn -0.22837 -0.852287 0.470588
vt -1.43793 -7.03141
vt -1.49413e-017 -0.385181
f 2/18/6 9/19/5 3/20/5

vt -2.44304 -6.74833
f 9/19/5 2/18/6 8/21/6

v -0.4 -0.69282 -2.01574e-015
vt -0.324041 -0.208235
vn -0.441176 -0.76414 0.470588
vt -4.35641 -5.70351
vt -0.167736 -0.34674
f 10/22/7 8/23/6 2/24/6

vt -5.13794 -5.01098
f 8/23/6 10/22/7 7/25/7

v -0.565685 -0.565685 -1.64584e-015
vt -0.370956 -0.10371
vn -0.623918 -0.623918 0.470588
vt -5.84132 -4.16981
vt -0.262306 -0.282064
f 11/26/8 7/27/7 10/28/7

v -2.82843 -2.82843 -6
vt -6.38458 -3.27804
f 7/27/7 11/26/8 12/29/8

vt -0.313732 -0.223465
v -3.4641 -2 -6
vt -6.91389 -1.92522
vn -0.76414 -0.441176 0.470588
vt -6.56134 -2.90812
f 11/30/8 13/31/9 12/32/8

v -0.69282 -0.4 -1.16379e-015
vt -0.384241 -0.026886
f 13/31/9 11/30/8 14/33/9

usemtl Color_E05
vt -0.565685 -0.565685
v 0.565685 -0.565685 -1.64584e-015
vt 0.565685 -0.565685
vt -0.69282 -0.4
f 11/34/1 15/35/1 14/36/1

vt -0.4 -0.69282
f 10/37/1 15/35/1 11/34/1

f 10/37/1 4/4/1 15/35/1

f 2/2/1 4/4/1 10/37/1

usemtl Color_M02
vt 5.84132 -4.16981
vt 0.370956 -0.10371
vn 0.623918 -0.623918 0.470588
vt 0.262306 -0.282064
f 6/38/3 15/39/10 4/40/3

v 2.82843 -2.82843 -6
vt 6.38458 -3.27804
f 15/39/10 6/38/3 16/41/10

usemtl Color_E05
vt 2.82843 -2.82843
vt -2.82843 -2.82843
f 6/11/4 12/42/4 16/43/4

f 6/11/4 7/10/4 12/42/4

vt 3.4641 -2
f 16/43/4 12/42/4 13/44/4

v 3.4641 -2 -6
vt -3.4641 -2
f 16/43/4 13/44/4 17/45/4

v -3.8637 -1.03528 -6
vt 3.8637 -1.03528
f 17/45/4 13/44/4 18/46/4

usemtl Color_M02
vt -0.344147 -0.172995
vt -7.12665 -0.848075
vn -0.852287 -0.22837 0.470588
vt -6.92815 -1.87324
f 14/47/9 18/48/11 13/49/9

v -0.772741 -0.207055 -6.0242e-016
vt -0.383846 0.0320392
f 18/48/11 14/47/9 19/50/11

usemtl Color_E05
v 0.772741 -0.207055 -6.0242e-016
vt 0.772741 -0.207055
vt -0.772741 -0.207055
f 14/36/1 20/51/1 19/52/1

v 0.69282 -0.4 -1.16379e-015
vt 0.69282 -0.4
f 14/36/1 21/53/1 20/51/1

f 14/36/1 15/35/1 21/53/1

usemtl Color_M02
vt 0.313732 -0.223465
vt 6.91389 -1.92522
vn 0.76414 -0.441176 0.470588
vt 0.384241 -0.026886
f 15/54/10 17/55/12 21/56/12

vt 6.56134 -2.90812
f 17/55/12 15/54/10 16/57/10

v 3.8637 -1.03528 -6
vt 7.12665 -0.848075
vn 0.852287 -0.22837 0.470588
vt 0.344147 -0.172995
vt 6.92815 -1.87324
f 22/58/13 21/59/12 17/60/12

vt 0.383846 0.0320392
f 21/59/12 22/58/13 20/61/13

v 4 0 -6
vt 7.17647 0.0814504
vn 0.882353 3.91191e-016 0.470588
vt 0.363643 -0.126997
vt 7.11233 -0.960787
f 23/62/14 20/63/13 22/64/13

v 0.8 5.06849e-016 -4.17968e-031
vt 0.376471 0.0814504
f 20/63/13 23/62/14 24/65/14

v 3.8637 1.03528 -6
vt 7.11233 0.960787
vn 0.852287 0.22837 0.470588
vt 0.376471 -0.0814504
vt 7.17647 -0.0814504
f 25/66/15 24/67/14 23/68/14

v 0.772741 0.207055 6.0242e-016
vt 0.363643 0.126997
f 24/67/14 25/66/15 26/69/15

v 3.4641 2 -6
vt 6.92815 1.87324
vn 0.76414 0.441176 0.470588
vt 0.383846 -0.0320392
vt 7.12665 0.848075
f 27/70/16 26/71/15 25/72/15

v 0.69282 0.4 1.16379e-015
vt 0.344147 0.172995
f 26/71/15 27/70/16 28/73/16

v 2.82843 2.82843 -6
vt 6.56134 2.90812
vn 0.623918 0.623918 0.470588
vt 0.384241 0.026886
vt 6.91389 1.92522
f 29/74/17 28/75/16 27/76/16

v 0.565685 0.565685 1.64584e-015
vt 0.313732 0.223465
f 28/75/16 29/74/17 30/77/17

v 2 3.4641 -6
vt 5.84132 4.16981
vn 0.441176 0.76414 0.470588
vt 0.370956 0.10371
vt 6.38458 3.27804
f 31/78/18 30/79/17 29/80/17

v 0.4 0.69282 2.01574e-015
vt 0.262306 0.282064
f 30/79/17 31/78/18 32/81/18

v 1.03528 3.8637 -6
vt 4.35641 5.70351
vn 0.22837 0.852287 0.470588
vt 0.324041 0.208235
vt 5.13794 5.01098
f 33/82/19 32/83/18 31/84/18

v 0.207055 0.772741 2.24826e-015
vt 0.167736 0.34674
f 32/83/18 33/82/19 34/85/19

vt 2.44304 6.74833
v 3.95826e-016 0.8 2.32757e-015
vt -1.73523e-016 0.385181
vn -3.91191e-016 0.882353 0.470588
vt 0.201021 0.328565
f 33/86/19 35/87/20 34/88/19

v -7.34788e-016 4 -6
vt 1.43793 7.03141
f 35/87/20 33/86/19 36/89/20

usemtl Color_E05
vt -1.03528 3.8637
v -1.03528 3.8637 -6
vt 1.03528 3.8637
vt 7.34788e-016 4
f 33/90/4 37/91/4 36/92/4

vt -2 3.4641
f 31/93/4 37/91/4 33/90/4

v -2 3.4641 -6
vt 2 3.4641
f 31/93/4 38/94/4 37/91/4

vt -2.82843 2.82843
f 29/95/4 38/94/4 31/93/4

v -2.82843 2.82843 -6
vt 2.82843 2.82843
f 29/95/4 39/96/4 38/94/4

vt -3.4641 2
f 27/97/4 39/96/4 29/95/4

v -3.4641 2 -6
vt 3.4641 2
f 27/97/4 40/98/4 39/96/4

vt -3.8637 1.03528
f 25/99/4 40/98/4 27/97/4

v -3.8637 1.03528 -6
vt 3.8637 1.03528
f 25/99/4 41/100/4 40/98/4

vt -4 0
f 23/101/4 41/100/4 25/99/4

v -4 -4.89859e-016 -6
vt 4 -4.89859e-016
f 23/101/4 42/102/4 41/100/4

vt -3.8637 -1.03528
f 22/103/4 42/102/4 23/101/4

f 22/103/4 18/46/4 42/102/4

f 17/45/4 18/46/4 22/103/4

usemtl Color_M02
vt -0.363643 -0.126997
vt -7.17647 0.0814504
vn -0.882353 4.19133e-017 0.470588
vt -7.11233 -0.960787
f 19/104/11 42/105/21 18/106/11

v -0.8 3.95826e-016 -7.40984e-031
vt -0.376471 0.0814504
f 42/105/21 19/104/11 43/107/21

usemtl Color_E05
vt -0.8 3.95826e-016
f 19/52/1 20/51/1 43/108/1

vt 0.8 5.06849e-016
f 43/108/1 20/51/1 24/109/1

v -0.772741 0.207055 6.0242e-016
vt -0.772741 0.207055
f 43/108/1 24/109/1 44/110/1

vt 0.772741 0.207055
f 44/110/1 24/109/1 26/111/1

v -0.69282 0.4 1.16379e-015
vt -0.69282 0.4
f 44/110/1 26/111/1 45/112/1

vt 0.69282 0.4
f 45/112/1 26/111/1 28/113/1

v -0.565685 0.565685 1.64584e-015
vt -0.565685 0.565685
f 45/112/1 28/113/1 46/114/1

vt 0.565685 0.565685
f 46/114/1 28/113/1 30/115/1

v -0.4 0.69282 2.01574e-015
vt -0.4 0.69282
f 46/114/1 30/115/1 47/116/1

vt 0.4 0.69282
f 47/116/1 30/115/1 32/117/1

v -0.207055 0.772741 2.24826e-015
vt -0.207055 0.772741
f 47/116/1 32/117/1 48/118/1

vt 0.207055 0.772741
f 48/118/1 32/117/1 34/119/1

vt 3.95826e-016 0.8
f 48/118/1 34/119/1 35/120/1

usemtl Color_M02
vt -1.43793 7.03141
vt -0.201021 0.328565
vn -0.22837 0.852287 0.470588
vt 9.28227e-016 0.385181
f 36/121/20 48/122/22 35/123/20

vt -2.44304 6.74833
f 48/122/22 36/121/20 37/124/22

vt -4.35641 5.70351
vt -0.324041 0.208235
vn -0.441176 0.76414 0.470588
vt -0.167736 0.34674
f 37/125/22 47/126/23 48/127/22

vt -5.13794 5.01098
f 47/126/23 37/125/22 38/128/23

vt -5.84132 4.16981
vt -0.370956 0.10371
vn -0.623918 0.623918 0.470588
vt -0.262306 0.282064
f 38/129/23 46/130/24 47/131/23

vt -6.38458 3.27804
f 46/130/24 38/129/23 39/132/24

vt -6.56134 2.90812
vt -0.384241 0.026886
vn -0.76414 0.441176 0.470588
vt -0.313732 0.223465
f 39/133/24 45/134/25 46/135/24

vt -6.91389 1.92522
f 45/134/25 39/133/24 40/136/25

vt -6.92815 1.87324
vt -0.383846 -0.0320392
vn -0.852287 0.22837 0.470588
vt -0.344147 0.172995
f 40/137/25 44/138/26 45/139/25

vt -7.12665 0.848075
f 44/138/26 40/137/25 41/140/26

vt -7.11233 0.960787
vt -0.376471 -0.0814504
vt -0.363643 0.126997
f 41/141/26 43/142/21 44/143/26

vt -7.17647 -0.0814504
f 43/142/21 41/141/26 42/144/21

